<svg xmlns="http://www.w3.org/2000/svg" viewBox="0 0 512 512" width="512" height="512"><path d="M257 0C116.39 0 0 114.39 0 255s116.39 257 257 257 255-116.39 255-257S397.61 0 257 0zm91.921 268.078L212.568 404.432c-6.565 6.565-17.208 6.565-23.773 0l-18.649-18.649c-6.565-6.565-6.565-17.208 0-23.773l93.902-93.902c7.221-7.221 7.172-18.945-.111-26.104l-93.589-92.015c-6.66-6.548-6.705-17.269-.101-23.873l18.622-18.622c6.536-6.536 17.122-6.569 23.698-.074L348.84 242.003c7.255 7.165 7.291 18.865.081 26.075z" fill="#c78132"/></svg>